<?xml version='1.0' encoding='iso-8859-1'?>
<!DOCTYPE svg PUBLIC '-//W3C//DTD SVG 1.1//EN' 'http://www.w3.org/Graphics/SVG/1.1/DTD/svg11.dtd'>
<svg version="1.1" xmlns="http://www.w3.org/2000/svg" viewBox="0 0 439.055 439.055" xmlns:xlink="http://www.w3.org/1999/xlink" enable-background="new 0 0 439.055 439.055">
  <g>
    <path d="m209.184,376.781c-2.178,3.103-3.943,5.841-5.93,8.408-7.874,10.171-15.695,20.387-23.786,30.384-3.987,4.925-8.356,3.983-10.613-2.163-1.131-3.079-1.38-6.469-2.276-9.649-2.476-8.778-5.082-17.518-7.647-26.309-12.971-0.817-24.131,7.548-36.37,3.896-2.086-5.694 2.707-7.141 5.473-9.722 5.367-5.006 11.034-9.715 16.114-14.993 4.013-4.168 7.332-9.004 11.086-13.703-29.061-20.313-62.701-32.942-86.379-61.685-9.012,2.319-15.079-3.22-20.544-11.02-8.645-12.336-19.125-23.59-22.635-38.8-1.082-4.69-0.713-9.716 0.328-14.633-5.237-10.099-11.084-19.934-15.591-30.35-11.186-25.852-14.031-52.687-5.238-79.726 9.915-30.49 31.038-51.344 59.882-64.394 43.196-19.542 87.096-20.136 130.766-2.16 11.729,4.828 22.06,13.087 32.932,19.932 3.078,1.938 5.797,4.445 8.072,6.218 14.311-9.637 27.635-19.522 41.81-27.981 40.985-24.456 91.156-25.974 134.317,7.804 14.999,11.739 24.856,27.583 25.86,48.085 1.023,20.891-1.159,41.065-8.177,60.734-2.721,7.627-5.612,15.198-8.108,22.898-2.752,8.488-7.826,16.211-6.104,26.133 0.728,4.197-2.228,9.16-3.914,13.622-3.64,9.633-7.437,19.21-11.399,28.715-1.256,3.013-2.547,6.923-5.018,8.345-7.32,4.214-9.671,11.616-13.597,18.102-3.041,5.025-6.327,9.939-9.911,14.59-10.995,14.268-22.186,28.385-34.112,43.595 5.014,4.312 10.595,8.859 15.873,13.735 3.752,3.467 7.681,6.983 10.49,11.175 4.871,7.269 2.379,11.487-6.598,12.131-2.932,0.21-5.894,0.007-8.842,0.006-9.831-0.003-19.662-0.001-30.011-0.001-1.598,11.278-3.18,22.497-4.783,33.713-0.261,1.822-0.199,3.852-1.022,5.393-1.119,2.097-2.825,5.222-4.496,5.366-2.433,0.209-5.846-1.186-7.44-3.077-3.288-3.904-5.63-8.601-8.401-12.946-1.552-2.434-3.185-4.815-5.234-7.901-4.399,5.132-8.029,10.096-12.387,14.304-10.892,10.519-17.963,10.757-30.047,1.607-11.985-9.081-23.939-18.205-36.393-27.678zm-98.365-167.543l-.211-.224c-2.494,3.044-4.892,6.173-7.505,9.112-3.284,3.694-5.251,7.5-2.477,12.812 8.913-8.527 17.413-16.659 25.913-24.791-6.723,10.374-14.751,19.36-23.036,28.103-3.119,3.292-4.453,6.8-2.876,10.982 2.035,5.4 4.441,10.66 6.688,15.98l-.184-.189c2.824,5.099 4.959,10.771 8.618,15.176 7.361,8.86 16.877,14.729 28.916,12.801 25.139-4.027 46.704-14.151 59.995-37.337-16.867-17.243-18.68-28.541-8.347-52.7-12.926-12.176-25.868-24.715-41.611-33.719-5.339-3.054-11.342-5.324-17.326-6.78-8.909-2.167-16.891,0.556-22.755,7.742-6.642,8.14-8.802,17.987-10.712,30.141 4.316-3.747 7.045-6.115 9.773-8.483-12.938,18.625-12.938,18.625-13.107,27.019 3.496-1.928 6.87-3.786 10.244-5.645zm-90.755-99.585l-.202-.209c-3.663,5.919-8.629,11.482-5.522,20.814 13.222-13.213 25.828-25.401 41.01-34.367-2.681,3.638-5.93,6.591-9.134,9.592-10.216,9.569-20.385,19.189-30.638,28.719-4.188,3.893-5.484,8.044-1.92,14.194 14.249-14.163 28.274-27.263 44.776-37.415-1.356,2.689-3.57,4.445-5.61,6.382-10.954,10.407-22.099,20.627-32.709,31.374-7.482,7.579-7.503,10.461-2.804,19.481 7.854-7.745 15.452-15.787 23.647-23.165 8.137-7.327 15.811-15.371 26.395-19.707-16.84,16.298-33.679,32.596-50.424,48.802 2.175,4.902 3.692,8.321 5.581,12.578 14.44-17.754 29.547-32.342 46.326-45.193-5.199,6.766-11.105,12.816-16.908,18.963-7.587,8.037-15.418,15.875-22.532,24.316-5.681,6.74-5.234,7.726 1.142,16.325 15.924-14.455 29.838-31.043 47.179-43.924-2.375,3.746-5.099,7.14-8.131,10.23-10.07,10.262-20.286,20.38-30.378,30.62-7.309,7.417-7.261,7.464-1.725,17.601 9.887,1.184 18.489-0.234 25.164-9.1 3.501-4.65 8.964-7.823 13.541-11.662-3.102,7.328-10.384,11.01-13.723,18.089 9.549,0 18.227,0 27.217,0 0.491-2.992 0.683-5.161 1.217-7.242 3.017-11.753 5.582-23.658 9.337-35.174 3.821-11.719 15.73-22.521 32.444-21.774 13.647,0.61 25.164,5.774 35.484,13.636 12.22,9.309 23.636,19.673 35.734,29.859 19.336-11.66 39.595-13.841 59.363-1.971 6.363-11.005 12.062-22.175 19.007-32.507 7.094-10.552 16.575-18.791 29.209-22.474 9.962-2.905 19.892-2.185 25.988,6.679 8.089,11.763 15.645,24.141 17.028,39.079 0.596,6.433 1.91,12.799 3.094,20.464 13.101-1.353 25.181-2.212 37.095-4.114 2.855-0.455 6.25-3.897 7.519-6.789 4.873-11.107 9.198-22.47 13.329-33.881 7.216-19.931 10.693-40.425 9.554-61.754-0.895-16.753-8.933-29.947-21.167-39.795-25.33-20.387-54.564-26.17-86.359-19.25-23.069,5.021-41.405,18.759-59.699,32.435-4.567,3.414-8.157,8.276-11.734,12.835-3.954,5.04-8.113,5.789-12.942,1.467-1.358-1.216-2.314-2.869-3.601-4.177-11.474-11.667-24.217-21.728-39.484-27.827-37.486-14.977-75.224-15.981-112.939-0.647-24.39,9.915-43.755,25.58-55.699,49.514-1.566,3.138-4.263,6.258-1.396,10.07zm247.984,134.084c10.13,6.239 19.381,12.015 28.711,17.662 10.775,6.521 21.817,8.173 33.393,1.835 11.217-6.141 16.112-15.709 15.475-28.178-0.767-15.023-2.252-30.019-2.671-45.047-0.403-14.438-5.21-27.277-12.228-39.521-4.046-7.058-7.669-8.361-15.487-6.033-11.182,3.329-19.238,10.857-25.186,20.339-7.009,11.174-13.128,22.912-19.466,34.497-0.778,1.422-0.927,3.469-0.678,5.122 0.954,6.348 2.188,12.654 3.557,20.32 4.851-5.185 8.763-9.365 12.674-13.546-5.713,11.746-15.652,20.675-18.094,32.55zm36.816,151.474c0.65-1.609 1.423-2.876 1.67-4.238 1.377-7.585 2.61-15.198 3.924-22.795 1.27-7.347 2.742-8.626 10.081-8.753 1.47-0.025 2.945,0.216 4.415,0.184 9.667-0.209 19.334-0.459 29.001-0.696-7.2-9.085-14.663-16.571-23.071-22.776-22.409-16.537-42.903-34.666-56.39-59.635-4.141-7.666-9.202-14.836-14.698-23.6-2.917,3.76-6.114,6.16-6.909,9.19-4.467,17.011-8.356,34.173-12.771,52.661 2.468,2.083 5.931,5.005 9.445,7.971 5.725-5.545 9.15-11.827 16.079-14.47-4.445,5.656-8.891,11.312-13.381,17.024 3.837,4.329 7.171,8.092 10.882,12.28 2.392-2.03 4.253-3.761 6.272-5.28 2.157-1.624 4.464-3.05 6.705-4.562 0.211,0.31 0.423,0.619 0.634,0.929-4.069,3.527-8.138,7.053-11.478,9.948 13.927,19.918 26.628,38.082 39.59,56.618zm-128.829,8.313c24.545-19.521 66.696-110.914 64.993-139.627-8.966-1.73-17.841-3.443-27.25-5.259-4.131,9.091-8.462,18.623-12.793,28.155 0.395,0.302 0.791,0.603 1.186,0.905 4.944-3.856 9.887-7.711 14.83-11.568-1.691,4.412-4.472,7.626-7.672,10.349-11.649,9.912-20.381,22.049-28.693,34.805-9.635,14.785-20.621,28.691-31.025,42.974-1.36,1.868-2.755,3.71-5.223,7.029 4.365-0.772 6.88-1.03 9.291-1.676 9.813-2.628 11.041-1.988 14.105,7.753 2.718,8.636 5.447,17.268 8.251,26.16zm41.886-156.209c15.336,11.665 34.952,6.464 41.588-9.201 4.605-10.87 3.851-21.743 0.272-32.266-3.094-9.095-9.453-16.171-19.937-16.675-11.764-0.567-22.584,2.635-31.61,10.692-10.378,9.265-12.497,22.297-5.103,35.19 6.015-8.013 11.629-16.063 20.144-21.421-6.432,8.228-12.864,16.456-19.797,25.325 4.684,3.369 8.151,5.864 11.812,8.497 6.294-7.579 12.137-14.304 19.868-18.765 0.653,0.692 1.306,1.385 1.96,2.077-6.345,5.47-12.691,10.939-19.197,16.547zm156.44,15.665c-11.722-4.542-19.938-3.503-28.034,2.917-20.009,15.869-40.032,16.217-60.691,1.103-2.48-1.814-5.115-3.416-7.678-5.116 10.256,27.57 30.675,45.619 52.212,61.776 15.114-20.754 29.557-40.586 44.191-60.68zm-137.031,55.448c-7.769,17.012-14.914,32.658-22.162,48.528 14.803,10.34 29.491,20.6 44.207,30.879 10.949-5.259 14.644-15.352 19.876-25.546-13.615-17.492-27.151-34.884-41.921-53.861zm-166.528-69.839c0.63,0.625 1.26,1.249 1.889,1.874-2.713,7.254-10.934,11.325-12.604,20.508 12.888,1.477 24.594-1.144 35.221-2.656-2.846-15.589-5.631-30.84-8.53-46.718-17.39,1.112-35.113,2.246-54.325,3.475 3.46,9.169 5.514,16.715 11.882,23.217 5.005-6.666 9.38-12.494 13.756-18.322 0.561,0.381 1.122,0.762 1.683,1.144-4.238,7.06-8.476,14.121-12.699,21.155 3.332,4.186 6.257,7.86 9.919,12.461 4.787-5.595 9.298-10.866 13.808-16.138zm11.92,32.262c24.96,20.937 53.973,33.66 80.277,51.078 11.398-15.934 22.993-30.523 29.493-47.435-12.908,4.393-25.583,8.961-38.422,13.012-16.886,5.327-31.47,0.137-43.388-11.873-8.246-8.311-16.807-9.065-27.96-4.782zm276.222-28.056c7.682-0.716 14.987-1.292 22.265-2.109 5.433-0.609 9.287-2.827 11.258-8.73 3.249-9.735 7.589-19.103 11.267-28.703 0.949-2.478 1.142-5.244 1.671-7.82-16.134,1.664-31.269,3.226-46.461,4.794 5.68434e-14,13.965 5.68434e-14,27.772 5.68434e-14,42.568z"/>
    <path d="m81.165,174.305c-13.327,12.489-26.655,24.978-40.226,37.695 2.034-9.162 21.095-27.672 40.226-37.695z"/>
    <path d="m20.064,109.653c4.413-3.7 8.825-7.399 13.238-11.099l-.192-.21c-4.415,3.7-8.83,7.4-13.246,11.1l.2,.209z"/>
    <path d="m57.385,78.391c-4.326,3.755-8.652,7.511-12.981,11.263-0.004-0.004 0.202,0.225 0.202,0.225 4.327-3.758 8.654-7.517 12.981-11.275l-.202-.213z"/>
    <path d="m33.301,98.554c3.766-2.895 7.532-5.789 11.302-8.679 0.004,0.004-0.202-0.224-0.199-0.22-3.762,2.899-7.527,5.796-11.294,8.691-0.001-0.002 0.191,0.208 0.191,0.208z"/>
    <path d="m57.588,78.604c2.549-2.679 5.098-5.359 7.646-8.038 0.509,0.627 1.018,1.254 1.527,1.881-3.123,1.983-6.246,3.966-9.373,5.946-0.003-0.002 0.2,0.211 0.2,0.211z"/>
    <path d="m107.314,261.212c11.919-12.717 25.534-23.4 39.064-34.185 0.511,0.542 1.022,1.084 1.533,1.625-2.978,2.976-5.834,6.088-8.958,8.901-7.376,6.642-14.8,13.237-22.378,19.647-2.611,2.208-4.803,6.085-9.401,3.863-0.045-0.041 0.14,0.149 0.14,0.149z"/>
    <path d="m106.281,246.947c9.435-14.056 22.917-24.282 34.873-35.952 0.62,0.589 1.239,1.178 1.858,1.767-11.589,12.014-23.177,24.028-34.766,36.042-0.654-0.619-1.31-1.238-1.965-1.857z"/>
    <path d="m121.68,270.368c5.984-5.725 11.968-11.45 17.952-17.175 0.654,0.687 1.308,1.375 1.962,2.063-6.009,5.698-12.017,11.396-18.026,17.095-0.629-0.661-1.259-1.322-1.888-1.983z"/>
    <path d="m110.819,209.238c3.502-3.771 7.003-7.542 10.505-11.314 0.633,0.68 1.266,1.359 1.9,2.038-4.264,2.949-6.82,7.859-12.616,9.051-0.001,0.001 0.211,0.225 0.211,0.225z"/>
    <path d="m299.72,219.322c-8.187,6.58-16.374,13.16-24.561,19.74 0.628,0.637 1.255,1.273 1.883,1.91 1.002-7.16 5.511-12.273 20.869-23.663 0.604,0.671 1.206,1.342 1.809,2.013z"/>
    <path d="m306.406,227.718c-6.386,6.018-12.772,12.036-19.408,18.291 4.799-8.151 11.84-13.496 19.408-18.291z"/>
    <path d="m300.207,250.787c4.374-4.003 8.748-8.006 13.122-12.009-2.05,6.329-6.745,10.02-13.122,12.009z"/>
    <path d="m268.833,320.597c-1.067,0.954-2.134,1.907-3.2,2.861-0.257-0.307-0.514-0.613-0.771-0.92 1.127-0.889 2.254-1.777 3.381-2.666 0.196,0.242 0.393,0.483 0.59,0.725z"/>
    <path d="m188.368,314.656c8.372-10.539 18.936-18.423 31.496-23.93-9.96,8.677-19.92,17.353-29.88,26.03-0.539-0.7-1.078-1.4-1.616-2.1z"/>
    <path d="m209.674,315.046c-8.876,7.527-17.752,15.053-26.629,22.579-0.575-0.68-1.151-1.361-1.726-2.041 7.252-9.262 16.975-15.674 26.621-22.175 0.578,0.546 1.156,1.091 1.734,1.637z"/>
    <path d="m226.736,224.731c-4.448,4.155-8.897,8.311-13.345,12.466-0.577-0.62-1.154-1.239-1.731-1.858 4.499-4.1 8.998-8.2 13.497-12.3 0.527,0.564 1.053,1.128 1.579,1.692z"/>
    <path d="m62.805,243.478c-1.791,2.173-3.583,4.346-5.374,6.519-0.395-0.3-0.79-0.601-1.186-0.902 1.76-2.31 3.519-4.62 5.279-6.93 0.427,0.438 0.854,0.875 1.281,1.313z"/>
  </g>
</svg>
