<?xml version='1.0' encoding='iso-8859-1'?>
<!DOCTYPE svg PUBLIC '-//W3C//DTD SVG 1.1//EN' 'http://www.w3.org/Graphics/SVG/1.1/DTD/svg11.dtd'>
<svg version="1.1" xmlns="http://www.w3.org/2000/svg" viewBox="0 0 446.14 446.14" xmlns:xlink="http://www.w3.org/1999/xlink" enable-background="new 0 0 446.14 446.14">
  <g>
    <path d="m221.509,76.013c22.958-25.674 54.906-37.852 88.679-45.591 30.997-7.104 60.87-0.31 87.831,14.994 18.849,10.7 31.316,28.409 38.597,49.427 17.076,49.288 10.481,96.204-14.141,141.072-20.943,38.163-47.143,72.744-74.828,106.229-4.833,5.845-9.528,11.839-13.846,18.07-12.2,17.603-26.084,33.714-41.771,48.281-0.52,0.483-1.627,0.656-1.774,1.17-3.38,11.803-12.703,9.059-20.239,7.227-21.742-5.285-43.6-10.507-64.741-17.723-18.038-6.158-35.638-14.103-52.545-22.95-23.35-12.218-46.266-25.387-68.635-39.324-25.193-15.696-45.125-37.099-61.457-61.844-12.245-18.552-17.002-39.561-20.663-61.085-5.102-29.997-0.263-58.209 13.742-84.986 5.592-10.691 13.338-19.679 22.5-27.55 23.666-20.332 49.929-35.622 80.628-42.694 16.497-3.8 33.182-4.352 49.376-0.076 17.706,4.675 34.904,11.274 53.287,17.353zm-175.195,207.574l-.286-.295c19.256,27.295 46.421,44.627 75.483,60.605 3.597-15.752 7.029-30.78 10.461-45.807 0.911,0.176 1.822,0.352 2.733,0.529 0.595,16.452-6.837,31.94-7.572,48.725 3.656,1.766 7.129,3.444 10.952,5.291 1.885-7.61 3.501-14.538 5.324-21.411 4.057-15.289 4.1-15.278 9.8-20.354-3.591,15.699-6.855,29.964-10.214,44.647 5.935,3.298 11.17,6.208 17.234,9.578 2.352-14.951 5.524-28.469 10.947-41.356 1.42,14.817-5.21,28.127-7.402,43.421 4.531,1.473 9.17,2.981 13.808,4.489l-.259-.181c7.679,3.934 14.98,9.121 23.107,11.57 26.163,7.887 52.631,14.764 77.985,21.755 4.368-5.145 7.756-9.307 11.328-13.305 6.019-6.735 12.66-12.976 18.153-20.107 24.478-31.774 49.18-63.4 72.7-95.878 12.25-16.915 22.975-35.067 33.023-53.409 12.71-23.198 17.928-48.779 18.368-75.044 0.368-21.968-5.438-42.992-15.004-62.621-5.738-11.775-14.676-22.131-25.992-28.553-18.413-10.449-38.894-17.291-60.124-15.469-37.913,3.252-72.44,16.359-100.877,42.643-4.763,4.402-8.561,4.886-14.417,2.56-12.736-5.06-25.716-9.582-38.799-13.676-22.453-7.027-44.787-6.071-67.039,1.641-21.812,7.56-41.043,19.258-58.86,33.814-14.487,11.835-24.401,26.53-30.378,43.99-5.432,15.867-7.79,32.31-6.708,49.039 0.479,7.404 2.46,14.711 3.759,22.062 8.502-15.574 14.876-31.144 25.216-44.689-0.215,2.835-1.077,5.392-2.157,7.852-5.953,13.558-12.255,26.971-17.846,40.675-3.984,9.766-1.955,18.106 5.255,27.076 6.7-25.761 16.131-45.328 24.32-49.687-7.468,19.788-14.795,39.203-22.349,59.218 5.649,7.148 10.988,13.905 16.327,20.662z"/>
    <path d="m352.845,121.537c23.702-1.012 37.621,22.061 30.345,43.536-5.269,15.55-14.088,29.387-25.426,41.229-18.233,19.043-36.921,37.655-55.628,56.236-4.847,4.815-10.217,9.212-15.804,13.153-17.594,12.41-38.533,9.276-51.96-7.396-4.235-5.258-6.377-11.077-6.42-17.941-0.126-20.136 9.235-36.334 22.118-50.358 16.365-17.814 33.85-34.557 53.657-48.75 8.169-5.854 16.129-12.377 22.814-19.825 7.396-8.241 16.304-9.9 26.304-9.884zm-1.852,7.467c-7.151-0.892-13.354,1.759-19.142,6.928-10.703,9.558-22.259,18.176-32.794,27.906-14.571,13.458-29.017,27.121-42.589,41.566-10.749,11.441-18.283,25.061-19.705,41.257-0.515,5.865 0.117,11.374 3.742,16.467 9.535,13.396 26.541,16.802 39.807,6.429 10.758-8.412 20.491-18.176 30.365-27.667 11.431-10.987 22.161-22.722 33.849-33.419 13.635-12.479 23.196-27.533 30.419-44.245 6.479-14.993-3.687-37.644-23.952-35.222z"/>
    <path d="m46.314,283.587c0.021-4.289-1.084-8.975 0.262-12.799 5.374-15.27 11.487-30.281 17.422-45.35 0.343-0.871 1.529-1.411 4.214-3.759-1.827,6.352-2.976,10.647-4.297,14.887-4.598,14.758-9.191,29.519-14.017,44.203-0.374,1.138-2.548,1.685-3.877,2.514 0.008,0.009 0.293,0.304 0.293,0.304z"/>
    <path d="m83.58,245.551c-5.484,18.032-10.968,36.065-17.189,56.522-1.271-4.259-2.514-6.366-2.406-8.403 0.582-10.946 11.123-39.452 19.595-48.119z"/>
    <path d="m99.611,259.333c-4.49,18.653-8.98,37.307-13.845,57.515-4.383-10.39 2.421-40.393 13.845-57.515z"/>
    <path d="m105.976,329.491c-2.276-9.985 3.091-40.089 8.856-52.262 1.869,18.169-4.702,34.994-8.856,52.262z"/>
    <path d="m177.585,371.648c2.816-10.965 4.864-22.192 10.944-32.101 0.3,10.612-3.076,20.384-6.664,30.052-0.387,1.044-2.949,1.281-4.521,1.88-0.018-0.011 0.241,0.169 0.241,0.169z"/>
    <path d="m204.41,376.437c-5.124-3.558-3.618-7.503-3.46-11.399 0.923-0.045 1.847-0.089 2.77-0.134 0.23,3.845 0.46,7.689 0.69,11.533z"/>
    <path d="m282.396,200.341c-0.193-11.022 13.457-23.742 25.119-23.408 9.088,0.261 20.304,12.887 20.72,23.326 0.399,10.022-13.648,23.174-24.675,23.103-11.335-0.072-20.946-10.526-21.164-23.021zm39.987-.481c-0.275-8.02-8.337-17.397-14.948-17.386-9.037,0.015-20.029,9.76-19.957,17.694 0.086,9.436 8.03,17.951 16.679,17.876 8.127-0.07 18.492-10.412 18.226-18.184z"/>
  </g>
</svg>
